#pragma once
#include "Melody/configNoteTone.h"
#include <Arduino.h>

// notes of the moledy followed by the duration.
// a 4 means a quarter note, 8 an eighteenth , 16 sixteenth, so on
// !!negative numbers are used to represent dotted notes,
// so -4 means a dotted quarter note, that is, a quarter plus an eighteenth!!

// Source:
// https://github.com/robsoncouto/arduino-songs/tree/master


//Based on the arrangement at https://www.flutetunes.com/tunes.php?id=192
static int16_t tetris[] = {
    NOTE_E5, 4,  NOTE_B4,8,  NOTE_C5,8,  NOTE_D5,4,  NOTE_C5,8,  NOTE_B4,8,
    NOTE_A4, 4,  NOTE_A4,8,  NOTE_C5,8,  NOTE_E5,4,  NOTE_D5,8,  NOTE_C5,8,
    NOTE_B4, -4,  NOTE_C5,8,  NOTE_D5,4,  NOTE_E5,4,
    NOTE_C5, 4,  NOTE_A4,4,  NOTE_A4,8,  NOTE_A4,4,  NOTE_B4,8,  NOTE_C5,8,

    NOTE_D5, -4,  NOTE_F5,8,  NOTE_A5,4,  NOTE_G5,8,  NOTE_F5,8,
    NOTE_E5, -4,  NOTE_C5,8,  NOTE_E5,4,  NOTE_D5,8,  NOTE_C5,8,
    NOTE_B4, 4,  NOTE_B4,8,  NOTE_C5,8,  NOTE_D5,4,  NOTE_E5,4,
    NOTE_C5, 4,  NOTE_A4,4,  NOTE_A4,4, REST, 4,

    NOTE_E5, 4,  NOTE_B4,8,  NOTE_C5,8,  NOTE_D5,4,  NOTE_C5,8,  NOTE_B4,8,
    NOTE_A4, 4,  NOTE_A4,8,  NOTE_C5,8,  NOTE_E5,4,  NOTE_D5,8,  NOTE_C5,8,
    NOTE_B4, -4,  NOTE_C5,8,  NOTE_D5,4,  NOTE_E5,4,
    NOTE_C5, 4,  NOTE_A4,4,  NOTE_A4,8,  NOTE_A4,4,  NOTE_B4,8,  NOTE_C5,8,

    NOTE_D5, -4,  NOTE_F5,8,  NOTE_A5,4,  NOTE_G5,8,  NOTE_F5,8,
    NOTE_E5, -4,  NOTE_C5,8,  NOTE_E5,4,  NOTE_D5,8,  NOTE_C5,8,
    NOTE_B4, 4,  NOTE_B4,8,  NOTE_C5,8,  NOTE_D5,4,  NOTE_E5,4,
    NOTE_C5, 4,  NOTE_A4,4,  NOTE_A4,4, REST, 4,
        

    NOTE_E5,2,  NOTE_C5,2,
    NOTE_D5,2,   NOTE_B4,2,
    NOTE_C5,2,   NOTE_A4,2,
    NOTE_GS4,2,  NOTE_B4,4,  REST,8, 
    NOTE_E5,2,   NOTE_C5,2,
    NOTE_D5,2,   NOTE_B4,2,
    NOTE_C5,4,   NOTE_E5,4,  NOTE_A5,2,
    NOTE_GS5,2,
};

// At Doom's Gate (E1M1)
// Score available at https://musescore.com/pieridot/doom
static int16_t doom[] = {
    NOTE_E2, 8, NOTE_E2, 8, NOTE_E3, 8, NOTE_E2, 8, NOTE_E2, 8, NOTE_D3, 8, NOTE_E2, 8, NOTE_E2, 8, //1
    NOTE_C3, 8, NOTE_E2, 8, NOTE_E2, 8, NOTE_AS2, 8, NOTE_E2, 8, NOTE_E2, 8, NOTE_B2, 8, NOTE_C3, 8,
    NOTE_E2, 8, NOTE_E2, 8, NOTE_E3, 8, NOTE_E2, 8, NOTE_E2, 8, NOTE_D3, 8, NOTE_E2, 8, NOTE_E2, 8,
    NOTE_C3, 8, NOTE_E2, 8, NOTE_E2, 8, NOTE_AS2, -2,

    NOTE_E2, 8, NOTE_E2, 8, NOTE_E3, 8, NOTE_E2, 8, NOTE_E2, 8, NOTE_D3, 8, NOTE_E2, 8, NOTE_E2, 8, //5
    NOTE_C3, 8, NOTE_E2, 8, NOTE_E2, 8, NOTE_AS2, 8, NOTE_E2, 8, NOTE_E2, 8, NOTE_B2, 8, NOTE_C3, 8,
    NOTE_E2, 8, NOTE_E2, 8, NOTE_E3, 8, NOTE_E2, 8, NOTE_E2, 8, NOTE_D3, 8, NOTE_E2, 8, NOTE_E2, 8,
    NOTE_C3, 8, NOTE_E2, 8, NOTE_E2, 8, NOTE_AS2, -2,

    NOTE_E2, 8, NOTE_E2, 8, NOTE_E3, 8, NOTE_E2, 8, NOTE_E2, 8, NOTE_D3, 8, NOTE_E2, 8, NOTE_E2, 8, //9
    NOTE_C3, 8, NOTE_E2, 8, NOTE_E2, 8, NOTE_AS2, 8, NOTE_E2, 8, NOTE_E2, 8, NOTE_B2, 8, NOTE_C3, 8,
    NOTE_E2, 8, NOTE_E2, 8, NOTE_E3, 8, NOTE_E2, 8, NOTE_E2, 8, NOTE_D3, 8, NOTE_E2, 8, NOTE_E2, 8,
    NOTE_C3, 8, NOTE_E2, 8, NOTE_E2, 8, NOTE_AS2, -2,

    NOTE_E2, 8, NOTE_E2, 8, NOTE_E3, 8, NOTE_E2, 8, NOTE_E2, 8, NOTE_D3, 8, NOTE_E2, 8, NOTE_E2, 8, //13
    NOTE_C3, 8, NOTE_E2, 8, NOTE_E2, 8, NOTE_AS2, 8, NOTE_E2, 8, NOTE_E2, 8, NOTE_B2, 8, NOTE_C3, 8,
    NOTE_E2, 8, NOTE_E2, 8, NOTE_E3, 8, NOTE_E2, 8, NOTE_E2, 8, NOTE_D3, 8, NOTE_E2, 8, NOTE_E2, 8,
    NOTE_FS3, -16, NOTE_D3, -16, NOTE_B2, -16, NOTE_A3, -16, NOTE_FS3, -16, NOTE_B2, -16, NOTE_D3, -16, NOTE_FS3, -16, NOTE_A3, -16, NOTE_FS3, -16, NOTE_D3, -16, NOTE_B2, -16,

    NOTE_E2, 8, NOTE_E2, 8, NOTE_E3, 8, NOTE_E2, 8, NOTE_E2, 8, NOTE_D3, 8, NOTE_E2, 8, NOTE_E2, 8, //17
    NOTE_C3, 8, NOTE_E2, 8, NOTE_E2, 8, NOTE_AS2, 8, NOTE_E2, 8, NOTE_E2, 8, NOTE_B2, 8, NOTE_C3, 8,
    NOTE_E2, 8, NOTE_E2, 8, NOTE_E3, 8, NOTE_E2, 8, NOTE_E2, 8, NOTE_D3, 8, NOTE_E2, 8, NOTE_E2, 8,
    NOTE_C3, 8, NOTE_E2, 8, NOTE_E2, 8, NOTE_AS2, -2,

    NOTE_E2, 8, NOTE_E2, 8, NOTE_E3, 8, NOTE_E2, 8, NOTE_E2, 8, NOTE_D3, 8, NOTE_E2, 8, NOTE_E2, 8, //21
    NOTE_C3, 8, NOTE_E2, 8, NOTE_E2, 8, NOTE_AS2, 8, NOTE_E2, 8, NOTE_E2, 8, NOTE_B2, 8, NOTE_C3, 8,
    NOTE_E2, 8, NOTE_E2, 8, NOTE_E3, 8, NOTE_E2, 8, NOTE_E2, 8, NOTE_D3, 8, NOTE_E2, 8, NOTE_E2, 8,
    NOTE_B3, -16, NOTE_G3, -16, NOTE_E3, -16, NOTE_G3, -16, NOTE_B3, -16, NOTE_E4, -16, NOTE_G3, -16, NOTE_B3, -16, NOTE_E4, -16, NOTE_B3, -16, NOTE_G4, -16, NOTE_B4, -16,

    NOTE_A2, 8, NOTE_A2, 8, NOTE_A3, 8, NOTE_A2, 8, NOTE_A2, 8, NOTE_G3, 8, NOTE_A2, 8, NOTE_A2, 8, //25
    NOTE_F3, 8, NOTE_A2, 8, NOTE_A2, 8, NOTE_DS3, 8, NOTE_A2, 8, NOTE_A2, 8, NOTE_E3, 8, NOTE_F3, 8,
    NOTE_A2, 8, NOTE_A2, 8, NOTE_A3, 8, NOTE_A2, 8, NOTE_A2, 8, NOTE_G3, 8, NOTE_A2, 8, NOTE_A2, 8,
    NOTE_F3, 8, NOTE_A2, 8, NOTE_A2, 8, NOTE_DS3, -2,

    NOTE_A2, 8, NOTE_A2, 8, NOTE_A3, 8, NOTE_A2, 8, NOTE_A2, 8, NOTE_G3, 8, NOTE_A2, 8, NOTE_A2, 8, //29
    NOTE_F3, 8, NOTE_A2, 8, NOTE_A2, 8, NOTE_DS3, 8, NOTE_A2, 8, NOTE_A2, 8, NOTE_E3, 8, NOTE_F3, 8,
    NOTE_A2, 8, NOTE_A2, 8, NOTE_A3, 8, NOTE_A2, 8, NOTE_A2, 8, NOTE_G3, 8, NOTE_A2, 8, NOTE_A2, 8,
    NOTE_A3, -16, NOTE_F3, -16, NOTE_D3, -16, NOTE_A3, -16, NOTE_F3, -16, NOTE_D3, -16, NOTE_C4, -16, NOTE_A3, -16, NOTE_F3, -16, NOTE_A3, -16, NOTE_F3, -16, NOTE_D3, -16,

    NOTE_E2, 8, NOTE_E2, 8, NOTE_E3, 8, NOTE_E2, 8, NOTE_E2, 8, NOTE_D3, 8, NOTE_E2, 8, NOTE_E2, 8, //33
    NOTE_C3, 8, NOTE_E2, 8, NOTE_E2, 8, NOTE_AS2, 8, NOTE_E2, 8, NOTE_E2, 8, NOTE_B2, 8, NOTE_C3, 8,
    NOTE_E2, 8, NOTE_E2, 8, NOTE_E3, 8, NOTE_E2, 8, NOTE_E2, 8, NOTE_D3, 8, NOTE_E2, 8, NOTE_E2, 8,
    NOTE_C3, 8, NOTE_E2, 8, NOTE_E2, 8, NOTE_AS2, -2,

    NOTE_E2, 8, NOTE_E2, 8, NOTE_E3, 8, NOTE_E2, 8, NOTE_E2, 8, NOTE_D3, 8, NOTE_E2, 8, NOTE_E2, 8, //37
    NOTE_C3, 8, NOTE_E2, 8, NOTE_E2, 8, NOTE_AS2, 8, NOTE_E2, 8, NOTE_E2, 8, NOTE_B2, 8, NOTE_C3, 8,
    NOTE_E2, 8, NOTE_E2, 8, NOTE_E3, 8, NOTE_E2, 8, NOTE_E2, 8, NOTE_D3, 8, NOTE_E2, 8, NOTE_E2, 8,
    NOTE_C3, 8, NOTE_E2, 8, NOTE_E2, 8, NOTE_AS2, -2,

    NOTE_CS3, 8, NOTE_CS3, 8, NOTE_CS4, 8, NOTE_CS3, 8, NOTE_CS3, 8, NOTE_B3, 8, NOTE_CS3, 8, NOTE_CS3, 8, //41
    NOTE_A3, 8, NOTE_CS3, 8, NOTE_CS3, 8, NOTE_G3, 8, NOTE_CS3, 8, NOTE_CS3, 8, NOTE_GS3, 8, NOTE_A3, 8,
    NOTE_B2, 8, NOTE_B2, 8, NOTE_B3, 8, NOTE_B2, 8, NOTE_B2, 8, NOTE_A3, 8, NOTE_B2, 8, NOTE_B2, 8,
    NOTE_G3, 8, NOTE_B2, 8, NOTE_B2, 8, NOTE_F3, -2,

    NOTE_E2, 8, NOTE_E2, 8, NOTE_E3, 8, NOTE_E2, 8, NOTE_E2, 8, NOTE_D3, 8, NOTE_E2, 8, NOTE_E2, 8, //45
    NOTE_C3, 8, NOTE_E2, 8, NOTE_E2, 8, NOTE_AS2, 8, NOTE_E2, 8, NOTE_E2, 8, NOTE_B2, 8, NOTE_C3, 8,
    NOTE_E2, 8, NOTE_E2, 8, NOTE_E3, 8, NOTE_E2, 8, NOTE_E2, 8, NOTE_D3, 8, NOTE_E2, 8, NOTE_E2, 8,
    NOTE_B3, -16, NOTE_G3, -16, NOTE_E3, -16, NOTE_G3, -16, NOTE_B3, -16, NOTE_E4, -16, NOTE_G3, -16, NOTE_B3, -16, NOTE_E4, -16, NOTE_B3, -16, NOTE_G4, -16, NOTE_B4, -16,

    NOTE_E2, 8, NOTE_E2, 8, NOTE_E3, 8, NOTE_E2, 8, NOTE_E2, 8, NOTE_D3, 8, NOTE_E2, 8, NOTE_E2, 8, //49
    NOTE_C3, 8, NOTE_E2, 8, NOTE_E2, 8, NOTE_AS2, 8, NOTE_E2, 8, NOTE_E2, 8, NOTE_B2, 8, NOTE_C3, 8,
    NOTE_E2, 8, NOTE_E2, 8, NOTE_E3, 8, NOTE_E2, 8, NOTE_E2, 8, NOTE_D3, 8, NOTE_E2, 8, NOTE_E2, 8,
    NOTE_C3, 8, NOTE_E2, 8, NOTE_E2, 8, NOTE_AS2, -2,

    NOTE_E2, 8, NOTE_E2, 8, NOTE_E3, 8, NOTE_E2, 8, NOTE_E2, 8, NOTE_D3, 8, NOTE_E2, 8, NOTE_E2, 8, //53
    NOTE_C3, 8, NOTE_E2, 8, NOTE_E2, 8, NOTE_AS2, 8, NOTE_E2, 8, NOTE_E2, 8, NOTE_B2, 8, NOTE_C3, 8,
    NOTE_E2, 8, NOTE_E2, 8, NOTE_E3, 8, NOTE_E2, 8, NOTE_E2, 8, NOTE_D3, 8, NOTE_E2, 8, NOTE_E2, 8,
    NOTE_FS3, -16, NOTE_DS3, -16, NOTE_B2, -16, NOTE_FS3, -16, NOTE_DS3, -16, NOTE_B2, -16, NOTE_G3, -16, NOTE_D3, -16, NOTE_B2, -16, NOTE_DS4, -16, NOTE_DS3, -16, NOTE_B2, -16,

    // -/-

    NOTE_E2, 8, NOTE_E2, 8, NOTE_E3, 8, NOTE_E2, 8, NOTE_E2, 8, NOTE_D3, 8, NOTE_E2, 8, NOTE_E2, 8, //57
    NOTE_C3, 8, NOTE_E2, 8, NOTE_E2, 8, NOTE_AS2, 8, NOTE_E2, 8, NOTE_E2, 8, NOTE_B2, 8, NOTE_C3, 8,
    NOTE_E2, 8, NOTE_E2, 8, NOTE_E3, 8, NOTE_E2, 8, NOTE_E2, 8, NOTE_D3, 8, NOTE_E2, 8, NOTE_E2, 8,
    NOTE_C3, 8, NOTE_E2, 8, NOTE_E2, 8, NOTE_AS2, -2,

    NOTE_E2, 8, NOTE_E2, 8, NOTE_E3, 8, NOTE_E2, 8, NOTE_E2, 8, NOTE_D3, 8, NOTE_E2, 8, NOTE_E2, 8, //61
    NOTE_C3, 8, NOTE_E2, 8, NOTE_E2, 8, NOTE_AS2, 8, NOTE_E2, 8, NOTE_E2, 8, NOTE_B2, 8, NOTE_C3, 8,
    NOTE_E2, 8, NOTE_E2, 8, NOTE_E3, 8, NOTE_E2, 8, NOTE_E2, 8, NOTE_D3, 8, NOTE_E2, 8, NOTE_E2, 8,
    NOTE_E4, -16, NOTE_B3, -16, NOTE_G3, -16, NOTE_G4, -16, NOTE_E4, -16, NOTE_G3, -16, NOTE_B3, -16, NOTE_D4, -16, NOTE_E4, -16, NOTE_G4, -16, NOTE_E4, -16, NOTE_G3, -16,  

    NOTE_E2, 8, NOTE_E2, 8, NOTE_E3, 8, NOTE_E2, 8, NOTE_E2, 8, NOTE_D3, 8, NOTE_E2, 8, NOTE_E2, 8, //65
    NOTE_C3, 8, NOTE_E2, 8, NOTE_E2, 8, NOTE_AS2, 8, NOTE_E2, 8, NOTE_E2, 8, NOTE_B2, 8, NOTE_C3, 8,
    NOTE_E2, 8, NOTE_E2, 8, NOTE_E3, 8, NOTE_E2, 8, NOTE_E2, 8, NOTE_D3, 8, NOTE_E2, 8, NOTE_E2, 8,
    NOTE_C3, 8, NOTE_E2, 8, NOTE_E2, 8, NOTE_AS2, -2,

    NOTE_A2, 8, NOTE_A2, 8, NOTE_A3, 8, NOTE_A2, 8, NOTE_A2, 8, NOTE_G3, 8, NOTE_A2, 8, NOTE_A2, 8, //69
    NOTE_F3, 8, NOTE_A2, 8, NOTE_A2, 8, NOTE_DS3, 8, NOTE_A2, 8, NOTE_A2, 8, NOTE_E3, 8, NOTE_F3, 8,
    NOTE_A2, 8, NOTE_A2, 8, NOTE_A3, 8, NOTE_A2, 8, NOTE_A2, 8, NOTE_G3, 8, NOTE_A2, 8, NOTE_A2, 8,
    NOTE_A3, -16, NOTE_F3, -16, NOTE_D3, -16, NOTE_A3, -16, NOTE_F3, -16, NOTE_D3, -16, NOTE_C4, -16, NOTE_A3, -16, NOTE_F3, -16, NOTE_A3, -16, NOTE_F3, -16, NOTE_D3, -16,

    NOTE_E2, 8, NOTE_E2, 8, NOTE_E3, 8, NOTE_E2, 8, NOTE_E2, 8, NOTE_D3, 8, NOTE_E2, 8, NOTE_E2, 8, //73
    NOTE_C3, 8, NOTE_E2, 8, NOTE_E2, 8, NOTE_AS2, 8, NOTE_E2, 8, NOTE_E2, 8, NOTE_B2, 8, NOTE_C3, 8,
    NOTE_E2, 8, NOTE_E2, 8, NOTE_E3, 8, NOTE_E2, 8, NOTE_E2, 8, NOTE_D3, 8, NOTE_E2, 8, NOTE_E2, 8,
    NOTE_C3, 8, NOTE_E2, 8, NOTE_E2, 8, NOTE_AS2, -2,

    NOTE_E2, 8, NOTE_E2, 8, NOTE_E3, 8, NOTE_E2, 8, NOTE_E2, 8, NOTE_D3, 8, NOTE_E2, 8, NOTE_E2, 8, //77
    NOTE_C3, 8, NOTE_E2, 8, NOTE_E2, 8, NOTE_AS2, 8, NOTE_E2, 8, NOTE_E2, 8, NOTE_B2, 8, NOTE_C3, 8,
    NOTE_E2, 8, NOTE_E2, 8, NOTE_E3, 8, NOTE_E2, 8, NOTE_E2, 8, NOTE_D3, 8, NOTE_E2, 8, NOTE_E2, 8,
    NOTE_C3, 8, NOTE_E2, 8, NOTE_E2, 8, NOTE_AS2, -2,

    NOTE_E2, 8, NOTE_E2, 8, NOTE_E3, 8, NOTE_E2, 8, NOTE_E2, 8, NOTE_D3, 8, NOTE_E2, 8, NOTE_E2, 8, //81
    NOTE_C3, 8, NOTE_E2, 8, NOTE_E2, 8, NOTE_AS2, 8, NOTE_E2, 8, NOTE_E2, 8, NOTE_B2, 8, NOTE_C3, 8,
    NOTE_E2, 8, NOTE_E2, 8, NOTE_E3, 8, NOTE_E2, 8, NOTE_E2, 8, NOTE_D3, 8, NOTE_E2, 8, NOTE_E2, 8,
    NOTE_C3, 8, NOTE_E2, 8, NOTE_E2, 8, NOTE_AS2, -2,

    NOTE_E2, 8, NOTE_E2, 8, NOTE_E3, 8, NOTE_E2, 8, NOTE_E2, 8, NOTE_D3, 8, NOTE_E2, 8, NOTE_E2, 8, //73
    NOTE_C3, 8, NOTE_E2, 8, NOTE_E2, 8, NOTE_AS2, 8, NOTE_E2, 8, NOTE_E2, 8, NOTE_B2, 8, NOTE_C3, 8,
    NOTE_E2, 8, NOTE_E2, 8, NOTE_E3, 8, NOTE_E2, 8, NOTE_E2, 8, NOTE_D3, 8, NOTE_E2, 8, NOTE_E2, 8,
    NOTE_B3, -16, NOTE_G3, -16, NOTE_E3, -16, NOTE_B2, -16, NOTE_E3, -16, NOTE_G3, -16, NOTE_C4, -16, NOTE_B3, -16, NOTE_G3, -16, NOTE_B3, -16, NOTE_G3, -16, NOTE_E3, -16,  
};

// Super Mario Bros theme
// Score available at https://musescore.com/user/2123/scores/2145
// Theme by Koji Kondo
static int16_t superMarioBros[] = {
    NOTE_E5,8, NOTE_E5,8, REST,8, NOTE_E5,8, REST,8, NOTE_C5,8, NOTE_E5,8, //1
    NOTE_G5,4, REST,4, NOTE_G4,8, REST,4, 
    NOTE_C5,-4, NOTE_G4,8, REST,4, NOTE_E4,-4, // 3
    NOTE_A4,4, NOTE_B4,4, NOTE_AS4,8, NOTE_A4,4,
    NOTE_G4,-8, NOTE_E5,-8, NOTE_G5,-8, NOTE_A5,4, NOTE_F5,8, NOTE_G5,8,
    REST,8, NOTE_E5,4,NOTE_C5,8, NOTE_D5,8, NOTE_B4,-4,
    NOTE_C5,-4, NOTE_G4,8, REST,4, NOTE_E4,-4, // repeats from 3
    NOTE_A4,4, NOTE_B4,4, NOTE_AS4,8, NOTE_A4,4,
    NOTE_G4,-8, NOTE_E5,-8, NOTE_G5,-8, NOTE_A5,4, NOTE_F5,8, NOTE_G5,8,
    REST,8, NOTE_E5,4,NOTE_C5,8, NOTE_D5,8, NOTE_B4,-4,

        
    REST,4, NOTE_G5,8, NOTE_FS5,8, NOTE_F5,8, NOTE_DS5,4, NOTE_E5,8,//7
    REST,8, NOTE_GS4,8, NOTE_A4,8, NOTE_C4,8, REST,8, NOTE_A4,8, NOTE_C5,8, NOTE_D5,8,
    REST,4, NOTE_DS5,4, REST,8, NOTE_D5,-4,
    NOTE_C5,2, REST,2,

    REST,4, NOTE_G5,8, NOTE_FS5,8, NOTE_F5,8, NOTE_DS5,4, NOTE_E5,8,//repeats from 7
    REST,8, NOTE_GS4,8, NOTE_A4,8, NOTE_C4,8, REST,8, NOTE_A4,8, NOTE_C5,8, NOTE_D5,8,
    REST,4, NOTE_DS5,4, REST,8, NOTE_D5,-4,
    NOTE_C5,2, REST,2,

    NOTE_C5,8, NOTE_C5,4, NOTE_C5,8, REST,8, NOTE_C5,8, NOTE_D5,4,//11
    NOTE_E5,8, NOTE_C5,4, NOTE_A4,8, NOTE_G4,2,

    NOTE_C5,8, NOTE_C5,4, NOTE_C5,8, REST,8, NOTE_C5,8, NOTE_D5,8, NOTE_E5,8,//13
    REST,1, 
    NOTE_C5,8, NOTE_C5,4, NOTE_C5,8, REST,8, NOTE_C5,8, NOTE_D5,4,
    NOTE_E5,8, NOTE_C5,4, NOTE_A4,8, NOTE_G4,2,
    NOTE_E5,8, NOTE_E5,8, REST,8, NOTE_E5,8, REST,8, NOTE_C5,8, NOTE_E5,4,
    NOTE_G5,4, REST,4, NOTE_G4,4, REST,4, 
    NOTE_C5,-4, NOTE_G4,8, REST,4, NOTE_E4,-4, // 19
        
    NOTE_A4,4, NOTE_B4,4, NOTE_AS4,8, NOTE_A4,4,
    NOTE_G4,-8, NOTE_E5,-8, NOTE_G5,-8, NOTE_A5,4, NOTE_F5,8, NOTE_G5,8,
    REST,8, NOTE_E5,4, NOTE_C5,8, NOTE_D5,8, NOTE_B4,-4,

    NOTE_C5,-4, NOTE_G4,8, REST,4, NOTE_E4,-4, // repeats from 19
    NOTE_A4,4, NOTE_B4,4, NOTE_AS4,8, NOTE_A4,4,
    NOTE_G4,-8, NOTE_E5,-8, NOTE_G5,-8, NOTE_A5,4, NOTE_F5,8, NOTE_G5,8,
    REST,8, NOTE_E5,4, NOTE_C5,8, NOTE_D5,8, NOTE_B4,-4,

    NOTE_E5,8, NOTE_C5,4, NOTE_G4,8, REST,4, NOTE_GS4,4,//23
    NOTE_A4,8, NOTE_F5,4, NOTE_F5,8, NOTE_A4,2,
    NOTE_D5,-8, NOTE_A5,-8, NOTE_A5,-8, NOTE_A5,-8, NOTE_G5,-8, NOTE_F5,-8,
        
    NOTE_E5,8, NOTE_C5,4, NOTE_A4,8, NOTE_G4,2, //26
    NOTE_E5,8, NOTE_C5,4, NOTE_G4,8, REST,4, NOTE_GS4,4,
    NOTE_A4,8, NOTE_F5,4, NOTE_F5,8, NOTE_A4,2,
    NOTE_B4,8, NOTE_F5,4, NOTE_F5,8, NOTE_F5,-8, NOTE_E5,-8, NOTE_D5,-8,
    NOTE_C5,8, NOTE_E4,4, NOTE_E4,8, NOTE_C4,2,

    NOTE_E5,8, NOTE_C5,4, NOTE_G4,8, REST,4, NOTE_GS4,4,//repeats from 23
    NOTE_A4,8, NOTE_F5,4, NOTE_F5,8, NOTE_A4,2,
    NOTE_D5,-8, NOTE_A5,-8, NOTE_A5,-8, NOTE_A5,-8, NOTE_G5,-8, NOTE_F5,-8,
        
    NOTE_E5,8, NOTE_C5,4, NOTE_A4,8, NOTE_G4,2, //26
    NOTE_E5,8, NOTE_C5,4, NOTE_G4,8, REST,4, NOTE_GS4,4,
    NOTE_A4,8, NOTE_F5,4, NOTE_F5,8, NOTE_A4,2,
    NOTE_B4,8, NOTE_F5,4, NOTE_F5,8, NOTE_F5,-8, NOTE_E5,-8, NOTE_D5,-8,
    NOTE_C5,8, NOTE_E4,4, NOTE_E4,8, NOTE_C4,2,
    NOTE_C5,8, NOTE_C5,4, NOTE_C5,8, REST,8, NOTE_C5,8, NOTE_D5,8, NOTE_E5,8,
    REST,1,

    NOTE_C5,8, NOTE_C5,4, NOTE_C5,8, REST,8, NOTE_C5,8, NOTE_D5,4, //33
    NOTE_E5,8, NOTE_C5,4, NOTE_A4,8, NOTE_G4,2,
    NOTE_E5,8, NOTE_E5,8, REST,8, NOTE_E5,8, REST,8, NOTE_C5,8, NOTE_E5,4,
    NOTE_G5,4, REST,4, NOTE_G4,4, REST,4, 
    NOTE_E5,8, NOTE_C5,4, NOTE_G4,8, REST,4, NOTE_GS4,4,
    NOTE_A4,8, NOTE_F5,4, NOTE_F5,8, NOTE_A4,2,
    NOTE_D5,-8, NOTE_A5,-8, NOTE_A5,-8, NOTE_A5,-8, NOTE_G5,-8, NOTE_F5,-8,
        
    NOTE_E5,8, NOTE_C5,4, NOTE_A4,8, NOTE_G4,2, //40
    NOTE_E5,8, NOTE_C5,4, NOTE_G4,8, REST,4, NOTE_GS4,4,
    NOTE_A4,8, NOTE_F5,4, NOTE_F5,8, NOTE_A4,2,
    NOTE_B4,8, NOTE_F5,4, NOTE_F5,8, NOTE_F5,-8, NOTE_E5,-8, NOTE_D5,-8,
    NOTE_C5,8, NOTE_E4,4, NOTE_E4,8, NOTE_C4,2,
        
    //game over sound
    NOTE_C5,-4, NOTE_G4,-4, NOTE_E4,4, //45
    NOTE_A4,-8, NOTE_B4,-8, NOTE_A4,-8, NOTE_GS4,-8, NOTE_AS4,-8, NOTE_GS4,-8,
    NOTE_G4,8, NOTE_D4,8, NOTE_E4,-2,  
};